 <svg width="320" height="73" viewBox="0 0 320 73" fill="none" xmlns="http://www.w3.org/2000/svg">
<path d="M0.28475 1.88H17.2768V43.16C17.2768 47.96 18.1728 51.608 19.9648 54.104C21.8208 56.536 24.9568 57.752 29.3728 57.752C33.8528 57.752 37.0208 56.536 38.8768 54.104C40.7968 51.608 41.7568 47.96 41.7568 43.16V1.88H58.7488V42.296C58.7488 52.088 56.3488 59.512 51.5488 64.568C46.8128 69.624 39.4208 72.152 29.3728 72.152C19.1968 72.152 11.8048 69.624 7.19675 64.568C2.58875 59.512 0.28475 52.088 0.28475 42.296V1.88ZM69.6883 36.728C69.6883 29.624 71.1923 23.384 74.2003 18.008C77.2723 12.568 81.7523 8.344 87.6403 5.336C93.5283 2.264 100.76 0.727995 109.336 0.727995C112.856 0.727995 116.024 0.983995 118.84 1.496C121.656 2.008 123.8 2.584 125.272 3.224V17.912H124.216C122.808 17.144 120.824 16.504 118.264 15.992C115.704 15.416 112.952 15.128 110.008 15.128C102.328 15.128 96.5683 16.984 92.7283 20.696C88.9523 24.408 87.0643 29.848 87.0643 37.016C87.0643 41.432 87.8643 45.24 89.4643 48.44C91.0643 51.576 93.3363 53.976 96.2803 55.64C99.2243 57.304 102.712 58.136 106.744 58.136C108.664 58.136 110.296 57.944 111.64 57.56C112.984 57.176 114.168 56.504 115.192 55.544L112.024 64.472V35.672H127.672V68.312C125.176 69.464 122.104 70.392 118.456 71.096C114.872 71.8 110.904 72.152 106.552 72.152C98.3603 72.152 91.5443 70.68 86.1043 67.736C80.6643 64.792 76.5683 60.664 73.8163 55.352C71.0643 49.976 69.6883 43.768 69.6883 36.728ZM138.313 36.44C138.313 29.4 139.689 23.192 142.441 17.816C145.193 12.44 149.193 8.248 154.441 5.23999C159.689 2.23199 166.057 0.727995 173.545 0.727995C180.969 0.727995 187.305 2.23199 192.553 5.23999C197.865 8.248 201.897 12.44 204.649 17.816C207.401 23.192 208.777 29.4 208.777 36.44C208.777 43.48 207.401 49.688 204.649 55.064C201.897 60.44 197.865 64.632 192.553 67.64C187.305 70.648 180.969 72.152 173.545 72.152C166.057 72.152 159.689 70.68 154.441 67.736C149.193 64.728 145.193 60.536 142.441 55.16C139.689 49.784 138.313 43.544 138.313 36.44ZM155.689 36.44C155.689 40.6 156.329 44.312 157.609 47.576C158.953 50.776 160.937 53.272 163.561 55.064C166.249 56.856 169.577 57.752 173.545 57.752C177.513 57.752 180.809 56.856 183.433 55.064C186.057 53.272 188.009 50.776 189.289 47.576C190.633 44.312 191.305 40.6 191.305 36.44C191.305 32.28 190.633 28.6 189.289 25.4C188.009 22.136 186.057 19.608 183.433 17.816C180.809 16.024 177.513 15.128 173.545 15.128C169.577 15.128 166.249 16.024 163.561 17.816C160.937 19.608 158.953 22.136 157.609 25.4C156.329 28.6 155.689 32.28 155.689 36.44ZM220.14 71V1.88H237.228V56.216H263.532V71H220.14ZM273.859 71V1.88H290.947V71H273.859ZM283.075 48.44V34.424H314.659V48.44H283.075ZM283.075 16.664V1.88H319.458V16.664H283.075Z" fill="url(#paint0_linear_23_2)"/>
<defs>
<linearGradient id="paint0_linear_23_2" x1="158" y1="-16" x2="158" y2="109" gradientUnits="userSpaceOnUse">
<stop stop-color="#D058B9"/>
<stop offset="1" stop-color="#78296D"/>
</linearGradient>
</defs>
</svg>
